<svg width="154" height="23" viewBox="0 0 154 23" fill="none" xmlns="http://www.w3.org/2000/svg">
<path d="M61.848 9.86301C62.891 8.90601 63.409 7.61001 63.409 6.03101C63.409 4.45901 62.891 3.18198 61.896 2.22198C59.885 0.304985 56.635 0.43399 56.484 0.43399L44.773 0.416992L44.801 22.122L49.719 22.107L49.687 11.55C50.354 11.55 51.581 11.572 52.836 11.572L58.103 21.837H62.794L57.071 11.587C58.264 11.542 60.389 11.242 61.848 9.86301ZM49.676 2.04099C51.397 2.06099 56.521 2.06699 56.521 2.06699C56.588 2.06699 59.278 1.965 60.797 3.401C61.468 4.04 61.787 4.90198 61.787 6.03198C61.787 7.15598 61.468 8.035 60.762 8.677C59.178 10.153 56.291 9.97098 56.263 9.97098C56.213 9.97098 51.674 9.94501 49.687 9.94501L49.676 2.04099Z" fill="#231815"/>
<path d="M84.257 13.552V0.457031H82.623V13.582C82.623 13.642 82.688 16.635 80.751 18.631C79.657 19.76 78.099 20.361 76.162 20.478C69.976 20.203 70.095 13.397 70.095 13.397V0.731018H66.024V13.976C66.024 13.976 65.774 22.013 75.527 22.107V22.135C78.256 22.135 80.41 21.331 81.936 19.754C84.349 17.239 84.257 13.706 84.257 13.552Z" fill="#231815"/>
<path d="M112.325 20.5139V12.006H122.067V10.391H112.325V2.06696C114.78 2.06696 125.172 2.04095 125.172 2.04095V0.417969L107.432 0.434967V22.1089L125.209 22.123V20.5139H112.325Z" fill="#231815"/>
<path d="M145.927 0.478058H143.653L131.856 11.7681V0.435059H126.962V22.0721H131.856V14.0721L134.516 11.5181L140.841 22.109L145.773 22.0781L137.398 8.73306L145.927 0.478058Z" fill="#231815"/>
<path d="M105.391 20.494H92.255L105.257 0.435059L86.519 0.458038V2.08606H99.943L86.443 22.1431L105.391 22.109V20.494Z" fill="#231815"/>
<path d="M153.427 0.433105H148.527V22.0921H153.427V0.433105Z" fill="#231815"/>
<path d="M15.668 0.433105V0.450104L15.577 0.433105L9.33099 19.5321L3.496 0.506104L0 0.534119L0.0589905 0.733124H0.0249939V22.4751H1.651V6.05212L6.44202 22.1241H10.05L10.166 22.1661C10.166 22.1661 13.636 11.5551 15.52 5.78812C15.513 11.7101 15.505 22.1231 15.505 22.1231H15.665H20.569V0.432129L15.668 0.433105Z" fill="#231815"/>
<path d="M38.075 22.168H42.757L34.79 0.417969H30.214L22.515 22.143L23.911 22.168L26.756 14.137H35.177L38.075 22.168ZM27.333 12.519L30.938 2.34195L34.598 12.519H27.333Z" fill="#231815"/>
</svg>
